<?xml version="1.0" encoding="UTF-8" standalone="no"?>
<svg
   xmlns:dc="http://purl.org/dc/elements/1.1/"
   xmlns:cc="http://creativecommons.org/ns#"
   xmlns:rdf="http://www.w3.org/1999/02/22-rdf-syntax-ns#"
   xmlns:svg="http://www.w3.org/2000/svg"
   xmlns="http://www.w3.org/2000/svg"
   viewBox="0 0 330.50668 140.98666"
   height="140.98666"
   width="330.50668"
   xml:space="preserve"
   id="svg2"
   version="1.1"><metadata
     id="metadata8"><rdf:RDF><cc:Work
         rdf:about=""><dc:format>image/svg+xml</dc:format><dc:type
           rdf:resource="http://purl.org/dc/dcmitype/StillImage" /></cc:Work></rdf:RDF></metadata><defs
     id="defs6" /><g
     transform="matrix(1.3333333,0,0,-1.3333333,0,140.98667)"
     id="g10"><g
       transform="scale(0.1)"
       id="g12"><path
         id="path14"
         style="fill:#00ff7b;fill-opacity:1;fill-rule:nonzero;stroke:none"
         d="m 2397.11,894.672 h -138.78 l 81.66,162.688 h 138.78 l -81.66,-162.688" /><path
         id="path16"
         style="fill:#7ffea5;fill-opacity:1;fill-rule:nonzero;stroke:none"
         d="m 2176.67,894.672 h -138.78 l 81.66,162.688 h 138.78 l -81.66,-162.688" /><path
         id="path18"
         style="fill:#ccffdf;fill-opacity:1;fill-rule:nonzero;stroke:none"
         d="m 1956.23,894.672 h -138.78 l 81.66,162.688 h 138.78 l -81.66,-162.688" /><path
         id="path20"
         style="fill:#010900;fill-opacity:1;fill-rule:nonzero;stroke:none"
         d="M 22.9102,34.7695 C 22.4766,32.0117 22.25,29.4805 22.25,27.1914 c -0.0078,-2.3008 0.3359,-4.3008 1.0391,-5.9805 0.7031,-1.6796 1.8281,-3.0117 3.3593,-3.9804 1.5235,-0.9688 3.5664,-1.461 6.1172,-1.461 2.6563,0 4.8828,0.4922 6.668,1.461 1.7852,0.9687 3.293,2.3008 4.5391,3.9804 1.2304,1.6797 2.2187,3.6797 2.9336,5.9805 0.7148,2.2891 1.2968,4.8203 1.7304,7.5781 l 12.086,76.2735 H 82.7773 L 70.6914,34.7695 C 69.5938,27.8203 67.7148,22.0781 65.0625,17.5391 62.4023,13 59.2227,9.39844 55.5352,6.73828 51.8516,4.07813 47.8398,2.30078 43.5039,1.37891 39.1719,0.460938 34.7656,0 30.2656,0 25.7773,0 21.4961,0.410156 17.4492,1.23047 13.3867,2.03906 9.92188,3.69922 7.05078,6.19922 4.17578,8.71094 2.13672,12.25 0.921875,16.8516 -0.289063,21.4414 -0.304688,27.4219 0.859375,34.7695 L 12.9414,111.043 H 34.9961 L 22.9102,34.7695" /><path
         id="path22"
         style="fill:#010900;fill-opacity:1;fill-rule:nonzero;stroke:none"
         d="m 136.93,36.1484 h 0.308 l 11.864,74.8946 h 20.222 L 152.004,1.69141 H 126.883 L 112.051,78.2617 h -0.309 L 99.6172,1.69141 H 79.4023 L 96.7227,111.043 H 122.141 L 136.93,36.1484" /><path
         id="path24"
         style="fill:#010900;fill-opacity:1;fill-rule:nonzero;stroke:none"
         d="m 185.711,111.043 h 22.051 L 190.441,1.69141 h -22.05 l 17.32,109.35159" /><path
         id="path26"
         style="fill:#010900;fill-opacity:1;fill-rule:nonzero;stroke:none"
         d="M 285.32,92.9688 H 261.426 L 246.965,1.69141 H 224.91 l 14.461,91.27739 h -23.894 l 2.859,18.0742 h 69.844 l -2.86,-18.0742" /><path
         id="path28"
         style="fill:#010900;fill-opacity:1;fill-rule:nonzero;stroke:none"
         d="m 298.746,111.043 h 22.055 L 303.477,1.69141 h -22.051 l 17.32,109.35159" /><path
         id="path30"
         style="fill:#010900;fill-opacity:1;fill-rule:nonzero;stroke:none"
         d="m 377.402,36.1484 h 0.309 l 11.859,74.8946 h 20.223 L 392.473,1.69141 H 367.355 L 352.523,78.2617 h -0.308 L 340.086,1.69141 h -20.211 l 17.32,109.35159 h 25.418 l 14.789,-74.8946" /><path
         id="path32"
         style="fill:#010900;fill-opacity:1;fill-rule:nonzero;stroke:none"
         d="m 468.824,84.8555 c -0.121,2.1367 -0.554,4.1172 -1.289,5.8906 -0.742,1.7891 -1.805,3.2773 -3.203,4.4453 -1.402,1.1719 -3.219,1.7695 -5.461,1.7695 -5.312,0 -9.613,-2.9648 -12.898,-8.8867 -3.282,-5.9219 -6.02,-15.7344 -8.184,-29.4179 -1.035,-6.5274 -1.766,-12.4571 -2.199,-17.7579 -0.434,-5.3086 -0.402,-9.8398 0.078,-13.5703 0.48,-3.7187 1.559,-6.5781 3.238,-8.5664 1.672,-1.9922 4.086,-2.9922 7.262,-2.9922 1.324,0 2.832,0.3594 4.527,1.0821 1.7,0.7187 3.352,1.7773 4.957,3.207 1.606,1.4297 3.043,3.25 4.309,5.4414 1.258,2.1992 2.137,4.7695 2.602,7.7383 l 1.773,11.1836 h -14.555 l 2.571,16.2383 h 35.691 l -9.34,-58.96879 h -16.238 l 1.598,10.10939 h -0.297 C 460.426,7.51172 456.754,4.46094 452.746,2.67969 448.734,0.898438 444.121,0 438.918,0 432.18,0 426.871,1.17188 423.008,3.51953 419.145,5.87109 416.402,9.5 414.773,14.3906 c -1.621,4.9102 -2.273,10.961 -1.949,18.1602 0.321,7.1992 1.239,15.5508 2.742,25.043 1.457,9.1875 3.321,17.25 5.602,24.1953 2.27,6.9453 5.199,12.7422 8.801,17.3945 3.59,4.6324 7.929,8.1324 12.996,10.4804 5.062,2.348 11.125,3.52 18.168,3.52 12.043,0 20.262,-2.985 24.617,-8.95 4.367,-5.9762 5.668,-14.527 3.906,-25.6559 H 468.52 c 0.324,2.0391 0.418,4.125 0.304,6.2774" /><path
         id="path34"
         style="fill:#010900;fill-opacity:1;fill-rule:nonzero;stroke:none"
         d="M 602.516,92.9688 H 578.621 L 564.164,1.69141 h -22.055 l 14.457,91.27739 h -23.89 l 2.859,18.0742 h 69.844 l -2.863,-18.0742" /><path
         id="path36"
         style="fill:#010900;fill-opacity:1;fill-rule:nonzero;stroke:none"
         d="m 636.926,111.043 -6.625,-41.8125 h 25.726 l 6.625,41.8125 h 22.055 L 667.387,1.69141 h -22.055 l 7.691,48.54689 H 627.297 L 619.605,1.69141 h -22.054 l 17.32,109.35159 h 22.055" /><path
         id="path38"
         style="fill:#010900;fill-opacity:1;fill-rule:nonzero;stroke:none"
         d="m 758.281,92.9688 h -39.054 l -4.079,-25.7344 h 36.754 l -2.867,-18.0742 h -36.75 l -4.656,-29.3985 h 40.59 L 745.355,1.69141 h -62.644 l 17.32,109.35159 h 61.114 l -2.864,-18.0742" /><path
         id="path40"
         style="fill:#010900;fill-opacity:1;fill-rule:nonzero;stroke:none"
         d="m 819.508,111.043 -0.711,-80.8711 h 0.305 l 25.679,80.8711 h 21.137 l 0.059,-80.8711 h 0.3 l 24.914,80.8711 H 912.32 L 875.094,1.69141 H 850.43 l 0.312,79.33589 h -0.308 L 825.617,1.69141 H 800.961 L 798.367,111.043 h 21.141" /><path
         id="path42"
         style="fill:#010900;fill-opacity:1;fill-rule:nonzero;stroke:none"
         d="m 929.871,37.6016 c -0.457,-5.1602 -0.402,-9.3399 0.16,-12.5625 0.559,-3.211 1.719,-5.5703 3.477,-7.0508 1.754,-1.4688 4.265,-2.2188 7.539,-2.2188 3.266,0 6.012,0.75 8.23,2.2188 2.231,1.4805 4.137,3.8398 5.719,7.0508 1.578,3.2226 2.953,7.4023 4.141,12.5625 1.168,5.1601 2.336,11.4179 3.504,18.7578 1.164,7.3554 1.964,13.5859 2.425,18.6914 0.446,5.1055 0.387,9.2969 -0.164,12.5586 -0.554,3.2656 -1.711,5.6406 -3.468,7.1289 -1.75,1.4805 -4.262,2.2226 -7.528,2.2226 -3.273,0 -6.019,-0.7421 -8.242,-2.2226 -2.23,-1.4883 -4.141,-3.8633 -5.726,-7.1289 -1.586,-3.2617 -2.965,-7.4531 -4.137,-12.5586 -1.164,-5.1055 -2.328,-11.336 -3.496,-18.6914 -1.164,-7.3399 -1.969,-13.5977 -2.434,-18.7578 z m -14.84,41.6679 c 1.867,6.9805 4.504,12.9844 7.899,17.9883 3.394,5.0002 7.765,8.9062 13.117,11.7192 5.348,2.808 12.152,4.207 20.43,4.207 8.269,0 14.632,-1.399 19.082,-4.207 4.461,-2.813 7.597,-6.719 9.406,-11.7192 1.808,-5.0039 2.551,-11.0078 2.203,-17.9883 -0.34,-6.9922 -1.164,-14.6367 -2.473,-22.9101 -1.332,-8.3711 -2.922,-16.0313 -4.793,-22.9688 -1.859,-6.9414 -4.496,-12.9101 -7.89,-17.9218 -3.391,-5 -7.754,-8.82817 -13.082,-11.48833 C 953.613,1.32813 946.82,0 938.551,0 c -8.281,0 -14.656,1.32813 -19.129,3.98047 -4.484,2.66016 -7.633,6.48833 -9.445,11.48833 -1.809,5.0117 -2.547,10.9804 -2.215,17.9218 0.332,6.9375 1.164,14.5977 2.492,22.9688 1.309,8.2734 2.894,15.9179 4.777,22.9101" /><path
         id="path44"
         style="fill:#010900;fill-opacity:1;fill-rule:nonzero;stroke:none"
         d="m 1030.05,63.2617 c 5.3,0 9.59,1.2422 12.84,3.7461 3.25,2.5039 5.35,6.7188 6.29,12.6328 1.6,10.1211 -2.7,15.1719 -12.91,15.1719 h -10.41 l -5,-31.5508 z m 17.06,47.7813 c 9.2,0 15.97,-2.32 20.34,-6.965 4.37,-4.6522 5.8,-11.7147 4.29,-21.2186 -1.16,-7.3438 -3.59,-13.3477 -7.28,-17.9922 -3.7,-4.6524 -8.77,-7.6367 -15.2,-8.957 l -0.05,-0.3204 c 5.39,-0.8085 9.13,-2.5898 11.25,-5.3515 2.11,-2.7578 2.99,-7.1992 2.63,-13.3281 -0.11,-2.0391 -0.31,-4.2618 -0.6,-6.6602 -0.27,-2.3984 -0.59,-5.0781 -0.96,-8.0391 -0.72,-5.8203 -1.12,-10.2617 -1.19,-13.32027 0.13,-3.07032 1.12,-5.16016 2.98,-6.28125 l -0.14,-0.91797 h -23.89 c -0.89,1.51953 -1.32,3.28906 -1.31,5.27734 0.01,1.99219 0.13,4.06255 0.37,6.21095 l 2.71,20.9687 c 0.47,4.293 -0.07,7.6602 -1.62,10.1133 -1.55,2.4571 -4.62,3.6797 -9.22,3.6797 h -11.79 L 1011.11,1.69141 H 989.055 L 1006.38,111.043 h 40.73" /><path
         id="path46"
         style="fill:#010900;fill-opacity:1;fill-rule:nonzero;stroke:none"
         d="m 1091.53,111.043 h 22.05 l -14.45,-91.2813 h 39.06 l -2.87,-18.07029 h -61.11 l 17.32,109.35159" /><path
         id="path48"
         style="fill:#010900;fill-opacity:1;fill-rule:nonzero;stroke:none"
         d="m 1180.63,17.9219 c 3.88,0 7.1,0.6562 9.65,2 2.56,1.3164 4.77,3.5078 6.64,6.5664 1.86,3.0703 3.42,7.1133 4.67,12.1133 1.24,5 2.47,11.2187 3.66,18.6875 0.98,6.2265 1.64,11.6875 1.97,16.3828 0.34,4.6992 0.11,8.6054 -0.67,11.7265 -0.78,3.1016 -2.3,5.4493 -4.55,7.0352 -2.25,1.5898 -5.47,2.3789 -9.66,2.3789 H 1183 l -12.18,-76.8906 z m 19.03,93.1211 c 7.65,0 13.64,-1.25 17.95,-3.754 4.29,-2.492 7.38,-6.066 9.25,-10.7187 1.86,-4.6445 2.74,-10.2383 2.63,-16.7773 -0.12,-6.5274 -0.82,-13.836 -2.1,-21.8985 -1.52,-9.5937 -3.43,-17.9453 -5.72,-25.0351 -2.3,-7.0977 -5.24,-12.9375 -8.82,-17.5391 -3.6,-4.6015 -7.97,-8.01952 -13.13,-10.26952 -5.16,-2.25 -11.4,-3.35937 -18.76,-3.35937 h -34.77 l 17.32,109.35159 h 36.15" /><path
         id="path50"
         style="fill:#010900;fill-opacity:1;fill-rule:nonzero;stroke:none"
         d="m 1295.78,37.6016 c -0.45,-5.1602 -0.4,-9.3399 0.16,-12.5625 0.56,-3.211 1.72,-5.5703 3.48,-7.0508 1.75,-1.4688 4.27,-2.2188 7.54,-2.2188 3.26,0 6.02,0.75 8.23,2.2188 2.23,1.4805 4.14,3.8398 5.71,7.0508 1.58,3.2226 2.97,7.4023 4.15,12.5625 1.17,5.1601 2.34,11.4179 3.5,18.7578 1.17,7.3554 1.97,13.5859 2.43,18.6914 0.44,5.1055 0.39,9.2969 -0.17,12.5586 -0.55,3.2656 -1.7,5.6406 -3.47,7.1289 -1.75,1.4805 -4.26,2.2226 -7.53,2.2226 -3.27,0 -6.02,-0.7421 -8.23,-2.2226 -2.23,-1.4883 -4.14,-3.8633 -5.73,-7.1289 -1.59,-3.2617 -2.97,-7.4531 -4.14,-12.5586 -1.16,-5.1055 -2.33,-11.336 -3.5,-18.6914 -1.16,-7.3399 -1.96,-13.5977 -2.43,-18.7578 z m -14.84,41.6679 c 1.87,6.9805 4.51,12.9844 7.91,17.9883 3.39,5.0002 7.76,8.9062 13.11,11.7192 5.34,2.808 12.15,4.207 20.43,4.207 8.27,0 14.63,-1.399 19.08,-4.207 4.46,-2.813 7.6,-6.719 9.41,-11.7192 1.81,-5.0039 2.54,-11.0078 2.2,-17.9883 -0.34,-6.9922 -1.16,-14.6367 -2.48,-22.9101 -1.32,-8.3711 -2.92,-16.0313 -4.79,-22.9688 -1.86,-6.9414 -4.49,-12.9101 -7.89,-17.9218 -3.39,-5 -7.75,-8.82817 -13.07,-11.48833 C 1319.52,1.32813 1312.73,0 1304.46,0 c -8.28,0 -14.65,1.32813 -19.12,3.98047 -4.49,2.66016 -7.64,6.48833 -9.45,11.48833 -1.81,5.0117 -2.55,10.9804 -2.21,17.9218 0.32,6.9375 1.16,14.5977 2.48,22.9688 1.32,8.2734 2.9,15.9179 4.78,22.9101" /><path
         id="path52"
         style="fill:#010900;fill-opacity:1;fill-rule:nonzero;stroke:none"
         d="m 1433.39,111.043 -2.85,-18.0742 h -39.06 l -4.08,-25.7344 h 36.75 l -2.85,-18.0742 h -36.76 l -7.52,-47.46879 h -22.06 l 17.32,109.35159 h 61.11" /><path
         id="path54"
         style="fill:#010900;fill-opacity:1;fill-rule:nonzero;stroke:none"
         d="m 1485.3,32.6211 c -0.41,-2.5508 -0.57,-4.8711 -0.5,-6.9609 0.07,-2.1016 0.57,-3.8594 1.47,-5.2891 0.89,-1.4219 2.21,-2.5625 3.98,-3.3594 1.76,-0.8203 4.07,-1.2422 6.92,-1.2422 3.37,0 6.59,1.1094 9.64,3.3008 3.06,2.1992 4.95,5.5899 5.68,10.1914 0.39,2.4492 0.39,4.5586 0.01,6.3477 -0.38,1.789 -1.23,3.4023 -2.53,4.832 -1.31,1.418 -3.11,2.7305 -5.44,3.9102 -2.31,1.1679 -5.21,2.3672 -8.69,3.5898 -4.64,1.6367 -8.6,3.418 -11.86,5.3672 -3.27,1.9297 -5.91,4.2031 -7.88,6.8086 -2,2.6094 -3.28,5.6211 -3.86,9.0391 -0.59,3.4179 -0.51,7.371 0.19,11.871 1.72,10.8204 6.01,18.8907 12.88,24.1957 6.86,5.312 15.55,7.961 26.07,7.961 4.91,0 9.34,-0.528 13.3,-1.598 3.97,-1.078 7.27,-2.82 9.9,-5.215 2.63,-2.402 4.5,-5.465 5.58,-9.1913 1.1,-3.7305 1.24,-8.1914 0.41,-13.3945 l -0.48,-3.0664 h -21.14 c 0.83,5.207 0.55,9.2148 -0.85,12.0156 -1.4,2.8203 -4.23,4.2265 -8.52,4.2265 -2.46,0 -4.56,-0.3632 -6.3,-1.0781 -1.75,-0.7187 -3.2,-1.6601 -4.36,-2.832 -1.15,-1.1797 -2.03,-2.5391 -2.63,-4.0625 -0.61,-1.5313 -1.02,-3.1094 -1.29,-4.75 -0.53,-3.3633 -0.27,-6.1953 0.8,-8.4961 1.07,-2.2969 3.8,-4.418 8.19,-6.3477 l 15.82,-7.3554 c 3.9,-1.8399 7.02,-3.7539 9.36,-5.75 2.34,-2 4.12,-4.1407 5.34,-6.4375 1.22,-2.2813 1.93,-4.8125 2.09,-7.5703 0.18,-2.7618 0,-5.8204 -0.53,-9.2032 -1.84,-11.539 -6.5,-19.9297 -14.02,-25.18747 C 1514.53,2.62109 1504.79,0 1492.85,0 c -12.46,0 -20.95,2.69922 -25.45,8.12109 -4.51,5.39841 -5.95,13.16801 -4.34,23.28911 l 0.7,4.4296 h 22.05 l -0.51,-3.2187" /><path
         id="path56"
         style="fill:#010900;fill-opacity:1;fill-rule:nonzero;stroke:none"
         d="m 1583.46,61.5664 c 4.39,0 8.15,1.3242 11.29,3.9922 3.12,2.6445 5.13,6.7812 6.02,12.4023 0.87,5.5157 0.36,9.6954 -1.54,12.5508 -1.89,2.875 -5.6,4.3008 -11.11,4.3008 h -9.19 l -5.27,-33.2461 z m 14.58,49.4766 c 5.61,0 10.19,-0.941 13.72,-2.828 3.53,-1.887 6.23,-4.371 8.09,-7.438 1.86,-3.0543 3,-6.5543 3.39,-10.4801 0.4,-3.9375 0.27,-7.9453 -0.37,-12.0352 -0.89,-5.6133 -2.52,-10.5117 -4.86,-14.6914 -2.34,-4.1992 -5.24,-7.6211 -8.66,-10.2617 -3.45,-2.668 -7.4,-4.6602 -11.9,-5.9805 -4.51,-1.3164 -9.35,-1.9883 -14.57,-1.9883 h -11.78 l -6.92,-43.64839 h -22.06 l 17.32,109.35159 h 38.6" /><path
         id="path58"
         style="fill:#010900;fill-opacity:1;fill-rule:nonzero;stroke:none"
         d="m 1647.6,37.6016 c -0.46,-5.1602 -0.4,-9.3399 0.15,-12.5625 0.56,-3.211 1.72,-5.5703 3.48,-7.0508 1.75,-1.4688 4.27,-2.2188 7.54,-2.2188 3.26,0 6.02,0.75 8.23,2.2188 2.23,1.4805 4.14,3.8398 5.71,7.0508 1.58,3.2226 2.97,7.4023 4.15,12.5625 1.17,5.1601 2.34,11.4179 3.5,18.7578 1.17,7.3554 1.97,13.5859 2.43,18.6914 0.44,5.1055 0.39,9.2969 -0.16,12.5586 -0.56,3.2656 -1.71,5.6406 -3.48,7.1289 -1.75,1.4805 -4.26,2.2226 -7.52,2.2226 -3.28,0 -6.03,-0.7421 -8.24,-2.2226 -2.23,-1.4883 -4.14,-3.8633 -5.73,-7.1289 -1.59,-3.2617 -2.96,-7.4531 -4.13,-12.5586 -1.16,-5.1055 -2.33,-11.336 -3.5,-18.6914 -1.17,-7.3399 -1.97,-13.5977 -2.43,-18.7578 z m -14.85,41.6679 c 1.87,6.9805 4.51,12.9844 7.91,17.9883 3.39,5.0002 7.76,8.9062 13.11,11.7192 5.34,2.808 12.15,4.207 20.43,4.207 8.27,0 14.63,-1.399 19.08,-4.207 4.46,-2.813 7.6,-6.719 9.41,-11.7192 1.81,-5.0039 2.54,-11.0078 2.2,-17.9883 -0.34,-6.9922 -1.16,-14.6367 -2.48,-22.9101 -1.32,-8.3711 -2.92,-16.0313 -4.79,-22.9688 -1.85,-6.9414 -4.48,-12.9101 -7.88,-17.9218 -3.4,-5 -7.76,-8.82817 -13.08,-11.48833 C 1671.34,1.32813 1664.54,0 1656.27,0 c -8.28,0 -14.65,1.32813 -19.12,3.98047 -4.49,2.66016 -7.64,6.48833 -9.45,11.48833 -1.8,5.0117 -2.55,10.9804 -2.21,17.9218 0.32,6.9375 1.16,14.5977 2.48,22.9688 1.32,8.2734 2.9,15.9179 4.78,22.9101" /><path
         id="path60"
         style="fill:#010900;fill-opacity:1;fill-rule:nonzero;stroke:none"
         d="m 1747.77,63.2617 c 5.31,0 9.6,1.2422 12.84,3.7461 3.26,2.5039 5.36,6.7188 6.3,12.6328 1.6,10.1211 -2.71,15.1719 -12.92,15.1719 h -10.41 l -4.99,-31.5508 z m 17.06,47.7813 c 9.19,0 15.98,-2.32 20.35,-6.965 4.37,-4.6522 5.79,-11.7147 4.29,-21.2186 -1.16,-7.3438 -3.59,-13.3477 -7.28,-17.9922 -3.7,-4.6524 -8.77,-7.6367 -15.21,-8.957 l -0.05,-0.3204 c 5.39,-0.8085 9.14,-2.5898 11.25,-5.3515 2.11,-2.7578 3,-7.1992 2.64,-13.3281 -0.12,-2.0391 -0.32,-4.2618 -0.6,-6.6602 -0.28,-2.3984 -0.59,-5.0781 -0.96,-8.0391 -0.73,-5.8203 -1.12,-10.2617 -1.2,-13.32027 0.14,-3.07032 1.12,-5.16016 2.98,-6.28125 l -0.14,-0.91797 h -23.89 c -0.89,1.51953 -1.31,3.28906 -1.3,5.27734 0,1.99219 0.13,4.06255 0.37,6.21095 l 2.71,20.9687 c 0.46,4.293 -0.07,7.6602 -1.62,10.1133 -1.55,2.4571 -4.63,3.6797 -9.23,3.6797 h -11.78 l -7.33,-46.24999 h -22.06 L 1724.1,111.043 h 40.73" /><path
         id="path62"
         style="fill:#010900;fill-opacity:1;fill-rule:nonzero;stroke:none"
         d="m 1867.66,92.9688 h -23.89 L 1829.3,1.69141 h -22.05 l 14.46,91.27739 h -23.89 l 2.86,18.0742 h 69.84 l -2.86,-18.0742" /><path
         id="path64"
         style="fill:#010900;fill-opacity:1;fill-rule:nonzero;stroke:none"
         d="M 2010.9,808.211 1887.66,542.926 1825.65,808.211 H 1684.12 L 1800.2,370.652 1693.13,162.348 h 135.96 l 317.5,645.863 H 2010.9" /><path
         id="path66"
         style="fill:#010900;fill-opacity:1;fill-rule:nonzero;stroke:none"
         d="m 1699.28,166.102 h 127.48 l 313.81,638.359 h -127.28 l -126.81,-272.973 -63.81,272.973 h -133.68 l 115.21,-434.238 -0.65,-1.285 z m 132.15,-7.5 h -144.44 l 109.22,212.48 -116.97,440.879 h 149.38 l 60.22,-257.602 119.67,257.602 h 144.11 L 1831.43,158.602" /><path
         id="path68"
         style="fill:#010900;fill-opacity:1;fill-rule:nonzero;stroke:none"
         d="M 1481.5,427.887 1451.36,657.293 1350.05,427.887 Z M 1079.05,161.641 1352,713.945 c 36.84,74.516 76.75,104.657 130.89,104.657 51.91,0 84.56,-33.493 96.84,-104.657 l 94.89,-552.304 h -157.96 l -19.54,148.468 h -198.98 l -65.59,-148.468 h -153.5" /><path
         id="path70"
         style="fill:#010900;fill-opacity:1;fill-rule:nonzero;stroke:none"
         d="M 887.008,818.867 H 1037.58 L 965.117,362.34 c -2.254,-13.535 -3.383,-24.531 -3.383,-33.84 0,-33.277 16.075,-42.016 65.706,-42.016 h 172.85 l -19.18,-121.25 c -43.7,-1.972 -132.25,-5.078 -170.87,-5.078 -106.873,0 -205.01,5.918 -205.01,123.223 0,12.976 1.133,27.355 3.668,43.148 l 78.11,492.34" /><path
         id="path72"
         style="fill:#010900;fill-opacity:1;fill-rule:nonzero;stroke:none"
         d="m 523.172,530.633 c 71.058,0 114.203,19.176 126.043,93.621 1.414,9.867 2.258,18.609 2.258,26.508 0,45.961 -26.227,64.57 -97.004,64.57 -20.864,0 -45.395,-1.406 -67.676,-4.512 L 458.879,533.738 c 20.867,-2.82 42.293,-3.105 64.293,-3.105 z M 401.637,173.359 H 251.34 l 102.078,644.618 c 60.625,11.558 137.324,19.171 217.125,19.171 129.43,0 232.07,-23.406 232.07,-158.753 0,-16.356 -1.41,-34.403 -4.511,-54.141 C 770.188,446.883 658.805,408.535 508.793,408.535 c -22.563,0 -49.633,1.133 -69.371,2.254 l -37.785,-237.43" /><path
         id="path74"
         style="fill:#010900;fill-opacity:1;fill-rule:nonzero;stroke:none"
         d="M 268.289,830.555 H 126.055 L 104.16,692.223 v 0 L 22.4375,176.199 H 164.227" /></g></g></svg>